# xmcd
#
# Track frame offsets:
#	150
#	6748
#	24238
#	35223
#	76085
#	86890
#	99782
#	114870
#	163044
#	172638
#	184740
#	201301
#	221191
#	239876
# Disc length: 3733 seconds
# Revision: 1
# Processed by: cddbd v1.5.1PL2 Copyright (c) Steve Scherf et al.
#
# Submitted via: libkcddb 0.31
#
DISCID=b70e930e
DTITLE=Jacek Kaczmarski - Świadectwo
DYEAR=2005
DGENRE=Unknown
TTITLE0=Świadectwo
TTITLE1=Nasza klasa
TTITLE2=Ballada o przedszkolu
TTITLE3=Korespondencja klasowa
TTITLE4=Starzy ludzie w autobusie
TTITLE5=Ballada pozytywna
TTITLE6=Nasza klasa '92
TTITLE7=Limeryki o narodach
TTITLE8=Sen Katarzyny II
TTITLE9=Obława
TTITLE10=Listy
TTITLE11=Zbroja
TTITLE12=Źródło
TTITLE13=Epitafium dla Włodzimierza Wysockiego
EXTD=
EXTT0=
EXTT1=
EXTT2=
EXTT3=
EXTT4=
EXTT5=
EXTT6=
EXTT7=
EXTT8=
EXTT9=
EXTT10=
EXTT11=
EXTT12=
EXTT13=
PLAYORDER=
